<svg xmlns="http://www.w3.org/2000/svg" version="1.1" xmlns:xlink="http://www.w3.org/1999/xlink" width="133" height="133"><svg role="img" aria-label="Logo" width="133" height="133" viewBox="0 0 133 133" fill="none" xmlns="http://www.w3.org/2000/svg">
      <path d="M114.346 53.3711L126.162 84.4988C128.698 91.1797 125.333 98.6631 118.652 101.199L65.9363 121.209C59.2554 123.745 51.772 120.38 49.236 113.699L37.4202 82.5715C34.8842 75.8907 38.2495 68.4073 44.9304 65.8713L97.6461 45.8609C104.327 43.3249 111.81 46.6902 114.346 53.3711Z" fill="#B5CEFF"></path>
      <path d="M110.609 38.7646L126.611 80.9217C129.371 88.1925 125.709 96.3367 118.438 99.0966L49.5561 125.243C42.2853 128.003 34.1411 124.341 31.3812 117.07L15.3787 74.913C12.6188 67.6422 16.2812 59.498 23.552 56.7381L92.4338 30.5912C99.7046 27.8313 107.849 31.4938 110.609 38.7646Z" stroke="#3C43E6" strokewidth="8" strokemiterlimit="1"></path>
      <path d="M62.1967 65.6678L72.3789 93.0025L88.5601 72.3263L62.1967 65.6678Z" stroke="#3C43E6" strokewidth="8" strokelinecap="round" strokelinejoin="round"></path>
      <path d="M47.93 44.5582L17.7764 29.6527" stroke="#3C43E6" strokewidth="8" strokelinecap="round"></path>
      <path d="M61.7161 25.7869L49.6793 44.4521" stroke="#3C43E6" strokewidth="8" strokelinecap="round"></path>
    </svg><style>@media (prefers-color-scheme: light) { :root { filter: none; } }
@media (prefers-color-scheme: dark) { :root { filter: none; } }
</style></svg>